<svg width="35" height="26" viewBox="0 0 35 26" fill="none" xmlns="http://www.w3.org/2000/svg">
<g clip-path="url(#clip0_172_15)">
<path d="M34.6327 2.1822C34.2621 1.99882 34.1023 2.34827 33.8856 2.5258C33.8116 2.58307 33.7487 2.65752 33.6859 2.72622C33.1441 3.31034 32.511 3.69419 31.684 3.6483C30.4747 3.57952 29.4424 3.96337 28.5297 4.89695C28.3359 3.74574 27.6913 3.05832 26.7102 2.61741C26.1971 2.38827 25.6779 2.15913 25.3185 1.66081C25.0676 1.30582 24.9992 0.910597 24.8736 0.521094C24.7937 0.286301 24.7138 0.045659 24.4457 0.0055521C24.1549 -0.0402125 24.0407 0.20596 23.9268 0.412279C23.4704 1.25427 23.2936 2.18213 23.3107 3.12145C23.3506 5.23498 24.2348 6.91876 25.9915 8.11587C26.1912 8.25335 26.2424 8.3907 26.1798 8.5913C26.06 9.00369 25.9173 9.40456 25.7919 9.81695C25.712 10.0805 25.5922 10.1377 25.3129 10.0231C24.3488 9.61654 23.516 9.01506 22.7803 8.28774C21.5311 7.06775 20.4017 5.72179 18.993 4.66788C18.6622 4.42158 18.3313 4.19256 17.989 3.97481C16.5517 2.56591 18.1773 1.40885 18.5537 1.27149C18.9472 1.12829 18.6906 0.635632 17.4186 0.641479C16.1467 0.647135 14.9831 1.07674 13.5002 1.64949C13.2835 1.73543 13.0552 1.79835 12.8214 1.8499C11.4753 1.59222 10.0779 1.53483 8.61772 1.70104C5.86847 2.01027 3.6726 3.32192 2.05843 5.56142C0.119196 8.25335 -0.337091 11.3118 0.221887 14.5021C0.809388 17.8641 2.50905 20.6477 5.12142 22.8242C7.83076 25.0807 10.9507 26.1863 14.5099 25.9745C16.6716 25.8483 19.0786 25.5564 21.7936 23.2365C22.4781 23.5804 23.1967 23.7177 24.3889 23.8207C25.3072 23.9067 26.1912 23.7751 26.8757 23.632C27.9479 23.4027 27.8739 22.4004 27.486 22.2171C24.3432 20.7395 25.0333 21.3408 24.406 20.8539C26.003 18.9467 28.4101 16.9649 29.3511 10.5443C29.4254 10.0346 29.3625 9.7138 29.3511 9.3014C29.3455 9.04945 29.4025 8.95214 29.6876 8.9234C30.4747 8.83175 31.2391 8.61418 31.9406 8.22468C33.9769 7.10214 34.7983 5.25786 34.9921 3.047C35.0206 2.70906 34.9865 2.3596 34.6327 2.1822ZM16.8883 22.0796C13.8425 19.6627 12.3653 18.8665 11.755 18.9008C11.1846 18.9352 11.2873 19.5939 11.4127 20.0235C11.5439 20.4473 11.715 20.7395 11.9545 21.1117C12.1199 21.358 12.2341 21.7245 11.7892 21.9995C10.8081 22.6123 9.10265 21.7932 9.02275 21.7532C7.03794 20.5733 5.37813 19.0153 4.20879 16.8848C3.07944 14.8342 2.42355 12.6349 2.31514 10.2866C2.28662 9.71964 2.45202 9.51905 3.01099 9.41607C3.74677 9.27859 4.5054 9.24987 5.24118 9.35869C8.34981 9.81694 10.9963 11.2202 13.215 13.4425C14.4813 14.7082 15.4395 16.2204 16.4263 17.6981C17.4758 19.2673 18.6051 20.7623 20.0425 21.988C20.5501 22.4175 20.9551 22.7439 21.3429 22.9847C20.1737 23.1163 18.223 23.145 16.8883 22.0796ZM18.3485 12.6005C18.3485 12.3485 18.5481 12.1481 18.7992 12.1481C18.8562 12.1481 18.9075 12.1594 18.9532 12.1766C19.0159 12.1996 19.073 12.234 19.1186 12.2854C19.1985 12.3657 19.2441 12.4802 19.2441 12.6005C19.2441 12.8525 19.0445 13.0529 18.7936 13.0529C18.5427 13.0529 18.3485 12.8526 18.3485 12.6005ZM22.883 14.9489C22.592 15.0692 22.3013 15.1722 22.0218 15.1837C21.5883 15.2065 21.1148 15.0289 20.8582 14.8113C20.459 14.4734 20.1738 14.2845 20.054 13.6945C20.0026 13.4425 20.0311 13.053 20.0769 12.8297C20.1795 12.3485 20.0654 12.0393 19.7289 11.7586C19.4551 11.5294 19.1072 11.4665 18.725 11.4665C18.5824 11.4665 18.4513 11.4034 18.3543 11.3519C18.1945 11.2717 18.0635 11.0713 18.1889 10.825C18.2288 10.7449 18.4228 10.5501 18.4684 10.5157C18.9875 10.2178 19.5864 10.3153 20.1396 10.5386C20.653 10.7505 21.0409 11.14 21.5998 11.6898C22.1702 12.3542 22.2728 12.5376 22.5979 13.0358C22.8548 13.4253 23.0886 13.8262 23.2483 14.2845C23.3452 14.5709 23.2196 14.8057 22.883 14.9489Z" fill="#010112"/>
</g>
<defs>
<clipPath id="clip0_172_15">
<rect width="35" height="26" fill="white"/>
</clipPath>
</defs>
</svg>
