<svg width="1040" height="480" viewBox="0 0 1040 480" fill="none" xmlns="http://www.w3.org/2000/svg">
<path d="M971.266 240C971.266 345.112 930.368 443.822 856.025 518.165L890.521 552.661C974.037 469.145 1020 358.108 1020 240C1020 121.892 974.037 10.8553 890.521 -72.6611L856.025 -38.1652C930.368 36.1779 971.266 134.983 971.266 240Z" fill="white" fill-opacity="0.8"/>
<path d="M1030 240C1030 360.758 982.985 474.339 897.592 559.732L890.52 566.804L883.45 559.732L841.883 518.165L848.954 511.095C921.423 438.626 961.267 342.459 961.267 240C961.267 137.635 921.421 41.3737 848.954 -31.0938L841.883 -38.165L883.45 -79.7324L890.521 -86.8037L897.592 -79.7324C982.985 5.6606 1030 119.242 1030 240Z" stroke="white" stroke-opacity="0.8" stroke-width="20"/>
<path d="M854.782 240C854.782 158.3 822.962 81.4719 765.15 23.6602L730.654 58.1561C779.197 106.699 805.953 171.295 805.953 240C805.953 308.706 779.197 373.302 730.654 421.845L765.15 456.341C822.962 398.624 854.782 321.797 854.782 240Z" fill="white" fill-opacity="0.8"/>
<path d="M864.782 240C864.782 324.446 831.91 403.822 772.216 463.418L765.145 470.477L758.079 463.412L716.512 421.845L723.583 414.773C770.249 368.107 795.953 306.054 795.953 240C795.953 173.946 770.249 111.894 723.583 65.2275L716.512 58.1562L765.15 9.51757L772.221 16.5889C831.907 76.2753 864.782 155.646 864.782 240Z" stroke="white" stroke-opacity="0.8" stroke-width="20"/>
<path d="M68.734 240C68.734 134.888 109.632 36.1779 183.975 -38.1652L149.479 -72.6611C65.9629 10.8553 20.0002 121.892 20.0002 240C20.0001 358.108 65.9629 469.145 149.479 552.661L183.975 518.165C109.632 443.822 68.734 345.112 68.734 240Z" fill="white" fill-opacity="0.8"/>
<path d="M149.479 566.804L142.408 559.732C57.015 474.339 9.99974 360.758 9.99974 240C9.9998 119.242 57.015 5.66059 142.408 -79.7324L149.479 -86.8037L198.118 -38.165L191.047 -31.0937C118.578 41.3746 78.7342 137.541 78.7341 240C78.7341 342.459 118.578 438.626 191.047 511.095L198.118 518.165L149.479 566.804Z" stroke="white" stroke-opacity="0.8" stroke-width="20"/>
<path d="M274.754 23.6602C216.942 81.4719 185.122 158.204 185.122 240C185.122 321.797 216.942 398.529 274.754 456.341L309.25 421.845C260.707 373.302 233.951 308.706 233.951 240C233.951 171.295 260.707 106.699 309.25 58.1561L274.754 23.6602Z" fill="white" fill-opacity="0.8"/>
<path d="M281.825 463.412L274.754 470.482L267.682 463.412C207.997 403.727 175.122 324.451 175.122 240C175.122 155.549 207.997 76.2742 267.682 16.5889L274.754 9.51758L323.392 58.1563L316.321 65.2275C269.655 111.894 243.951 173.946 243.951 240C243.951 306.054 269.654 368.107 316.321 414.773L323.392 421.845L281.825 463.412Z" stroke="white" stroke-opacity="0.8" stroke-width="20"/>
</svg>
