<svg width="1006" height="495" viewBox="0 0 1006 495" fill="none" xmlns="http://www.w3.org/2000/svg">
<g opacity="0.09">
<path d="M289.505 367.869C191.423 367.869 111.631 288.077 111.631 189.995C111.631 91.9122 191.423 12.1306 289.505 12.1306C387.588 12.1306 467.38 91.9227 467.38 190.005C467.38 288.088 387.588 367.88 289.505 367.88V367.869Z" stroke="url(#paint0_linear_103_288)" stroke-width="0.5" stroke-miterlimit="10"/>
<path d="M289.505 367.869C191.423 367.869 111.631 288.077 111.631 189.995C111.631 91.9122 191.423 12.1306 289.505 12.1306C387.588 12.1306 467.38 91.9227 467.38 190.005C467.38 288.088 387.588 367.88 289.505 367.88V367.869Z" stroke="url(#paint1_linear_103_288)" stroke-width="0.5" stroke-miterlimit="10"/>
</g>
<g opacity="0.18">
<path d="M289.505 355.749C198.106 355.749 123.751 281.404 123.751 190.005C123.751 98.6062 198.096 24.2509 289.505 24.2509C380.915 24.2509 455.249 98.5957 455.249 189.995C455.249 281.394 380.904 355.739 289.505 355.739V355.749Z" stroke="url(#paint2_linear_103_288)" stroke-width="0.5" stroke-miterlimit="10"/>
<path d="M289.505 355.749C198.106 355.749 123.751 281.404 123.751 190.005C123.751 98.6062 198.096 24.2509 289.505 24.2509C380.915 24.2509 455.249 98.5957 455.249 189.995C455.249 281.394 380.904 355.739 289.505 355.739V355.749Z" stroke="url(#paint3_linear_103_288)" stroke-width="0.5" stroke-miterlimit="10"/>
</g>
<g opacity="0.27">
<path d="M289.505 343.619C204.779 343.619 135.881 274.721 135.881 189.995C135.881 105.269 204.779 36.3816 289.505 36.3816C374.231 36.3816 443.129 105.279 443.129 190.005C443.129 274.731 374.231 343.629 289.505 343.629V343.619Z" stroke="url(#paint4_linear_103_288)" stroke-width="0.5" stroke-miterlimit="10"/>
<path d="M289.505 343.619C204.779 343.619 135.881 274.721 135.881 189.995C135.881 105.269 204.779 36.3816 289.505 36.3816C374.231 36.3816 443.129 105.279 443.129 190.005C443.129 274.731 374.231 343.629 289.505 343.629V343.619Z" stroke="url(#paint5_linear_103_288)" stroke-width="0.5" stroke-miterlimit="10"/>
</g>
<g opacity="0.36">
<path d="M289.505 331.498C211.462 331.498 148.002 268.037 148.002 190.005C148.002 111.973 211.462 48.5017 289.505 48.5017C367.548 48.5017 430.998 111.962 430.998 189.995C430.998 268.027 367.537 331.488 289.505 331.488V331.498Z" stroke="url(#paint6_linear_103_288)" stroke-width="0.5" stroke-miterlimit="10"/>
<path d="M289.505 331.498C211.462 331.498 148.002 268.037 148.002 190.005C148.002 111.973 211.462 48.5017 289.505 48.5017C367.548 48.5017 430.998 111.962 430.998 189.995C430.998 268.027 367.537 331.488 289.505 331.488V331.498Z" stroke="url(#paint7_linear_103_288)" stroke-width="0.5" stroke-miterlimit="10"/>
</g>
<g opacity="0.45">
<path d="M289.505 319.368C218.146 319.368 160.132 261.354 160.132 189.995C160.132 118.635 218.146 60.622 289.505 60.622C360.865 60.622 418.878 118.635 418.878 189.995C418.878 261.354 360.865 319.368 289.505 319.368Z" stroke="url(#paint8_linear_103_288)" stroke-width="0.5" stroke-miterlimit="10"/>
<path d="M289.505 319.368C218.146 319.368 160.132 261.354 160.132 189.995C160.132 118.635 218.146 60.622 289.505 60.622C360.865 60.622 418.878 118.635 418.878 189.995C418.878 261.354 360.865 319.368 289.505 319.368Z" stroke="url(#paint9_linear_103_288)" stroke-width="0.5" stroke-miterlimit="10"/>
</g>
<g opacity="0.55">
<path d="M289.505 307.247C224.829 307.247 172.263 254.681 172.263 190.005C172.263 125.329 224.829 72.763 289.505 72.763C354.181 72.763 406.747 125.329 406.747 190.005C406.747 254.681 354.181 307.247 289.505 307.247Z" stroke="url(#paint10_linear_103_288)" stroke-width="0.5" stroke-miterlimit="10"/>
<path d="M289.505 307.247C224.829 307.247 172.263 254.681 172.263 190.005C172.263 125.329 224.829 72.763 289.505 72.763C354.181 72.763 406.747 125.329 406.747 190.005C406.747 254.681 354.181 307.247 289.505 307.247Z" stroke="url(#paint11_linear_103_288)" stroke-width="0.5" stroke-miterlimit="10"/>
</g>
<g opacity="0.64">
<path d="M289.505 295.117C231.513 295.117 184.383 247.987 184.383 189.995C184.383 132.002 231.513 84.8728 289.505 84.8728C347.498 84.8728 394.627 132.002 394.627 189.995C394.627 247.987 347.498 295.117 289.505 295.117Z" stroke="url(#paint12_linear_103_288)" stroke-width="0.5" stroke-miterlimit="10"/>
<path d="M289.505 295.117C231.513 295.117 184.383 247.987 184.383 189.995C184.383 132.002 231.513 84.8728 289.505 84.8728C347.498 84.8728 394.627 132.002 394.627 189.995C394.627 247.987 347.498 295.117 289.505 295.117Z" stroke="url(#paint13_linear_103_288)" stroke-width="0.5" stroke-miterlimit="10"/>
</g>
<g opacity="0.73">
<path d="M289.505 282.997C238.186 282.997 196.514 241.314 196.514 190.005C196.514 138.696 238.196 97.0139 289.505 97.0139C340.814 97.0139 382.497 138.696 382.497 190.005C382.497 241.314 340.814 282.997 289.505 282.997Z" stroke="url(#paint14_linear_103_288)" stroke-width="0.5" stroke-miterlimit="10"/>
<path d="M289.505 282.997C238.186 282.997 196.514 241.314 196.514 190.005C196.514 138.696 238.196 97.0139 289.505 97.0139C340.814 97.0139 382.497 138.696 382.497 190.005C382.497 241.314 340.814 282.997 289.505 282.997Z" stroke="url(#paint15_linear_103_288)" stroke-width="0.5" stroke-miterlimit="10"/>
</g>
<g opacity="0.82">
<path d="M289.505 270.866C244.869 270.866 208.634 234.631 208.634 189.995C208.634 145.359 244.869 109.124 289.505 109.124C334.141 109.124 370.376 145.359 370.376 189.995C370.376 234.631 334.141 270.866 289.505 270.866Z" stroke="url(#paint16_linear_103_288)" stroke-width="0.5" stroke-miterlimit="10"/>
<path d="M289.505 270.866C244.869 270.866 208.634 234.631 208.634 189.995C208.634 145.359 244.869 109.124 289.505 109.124C334.141 109.124 370.376 145.359 370.376 189.995C370.376 234.631 334.141 270.866 289.505 270.866Z" stroke="url(#paint17_linear_103_288)" stroke-width="0.5" stroke-miterlimit="10"/>
</g>
<g opacity="0.91">
<path d="M289.505 258.746C251.552 258.746 220.765 227.948 220.765 190.005C220.765 152.063 251.563 121.265 289.505 121.265C327.448 121.265 358.246 152.063 358.246 190.005C358.246 227.948 327.448 258.746 289.505 258.746Z" stroke="url(#paint18_linear_103_288)" stroke-width="0.5" stroke-miterlimit="10"/>
<path d="M289.505 258.746C251.552 258.746 220.765 227.948 220.765 190.005C220.765 152.063 251.563 121.265 289.505 121.265C327.448 121.265 358.246 152.063 358.246 190.005C358.246 227.948 327.448 258.746 289.505 258.746Z" stroke="url(#paint19_linear_103_288)" stroke-width="0.5" stroke-miterlimit="10"/>
</g>
<path d="M289.505 246.615C320.776 246.615 346.126 221.265 346.126 189.995C346.126 158.724 320.776 133.375 289.505 133.375C258.235 133.375 232.885 158.724 232.885 189.995C232.885 221.265 258.235 246.615 289.505 246.615Z" stroke="url(#paint20_linear_103_288)" stroke-width="0.5" stroke-miterlimit="10"/>
<path d="M289.505 246.615C320.776 246.615 346.126 221.265 346.126 189.995C346.126 158.724 320.776 133.375 289.505 133.375C258.235 133.375 232.885 158.724 232.885 189.995C232.885 221.265 258.235 246.615 289.505 246.615Z" stroke="url(#paint21_linear_103_288)" stroke-width="0.5" stroke-miterlimit="10"/>
<g opacity="0.09">
<path d="M644.505 482.869C546.423 482.869 466.631 403.077 466.631 304.995C466.631 206.912 546.423 127.131 644.505 127.131C742.588 127.131 822.38 206.923 822.38 305.005C822.38 403.088 742.588 482.88 644.505 482.88V482.869Z" stroke="url(#paint22_linear_103_288)" stroke-width="0.5" stroke-miterlimit="10"/>
<path d="M644.505 482.869C546.423 482.869 466.631 403.077 466.631 304.995C466.631 206.912 546.423 127.131 644.505 127.131C742.588 127.131 822.38 206.923 822.38 305.005C822.38 403.088 742.588 482.88 644.505 482.88V482.869Z" stroke="url(#paint23_linear_103_288)" stroke-width="0.5" stroke-miterlimit="10"/>
</g>
<g opacity="0.18">
<path d="M644.505 470.749C553.106 470.749 478.751 396.404 478.751 305.005C478.751 213.606 553.096 139.251 644.505 139.251C735.915 139.251 810.249 213.596 810.249 304.995C810.249 396.394 735.904 470.739 644.505 470.739V470.749Z" stroke="url(#paint24_linear_103_288)" stroke-width="0.5" stroke-miterlimit="10"/>
<path d="M644.505 470.749C553.106 470.749 478.751 396.404 478.751 305.005C478.751 213.606 553.096 139.251 644.505 139.251C735.915 139.251 810.249 213.596 810.249 304.995C810.249 396.394 735.904 470.739 644.505 470.739V470.749Z" stroke="url(#paint25_linear_103_288)" stroke-width="0.5" stroke-miterlimit="10"/>
</g>
<g opacity="0.27">
<path d="M644.505 458.619C559.779 458.619 490.882 389.721 490.882 304.995C490.882 220.269 559.779 151.382 644.505 151.382C729.231 151.382 798.129 220.279 798.129 305.005C798.129 389.731 729.231 458.629 644.505 458.629V458.619Z" stroke="url(#paint26_linear_103_288)" stroke-width="0.5" stroke-miterlimit="10"/>
<path d="M644.505 458.619C559.779 458.619 490.882 389.721 490.882 304.995C490.882 220.269 559.779 151.382 644.505 151.382C729.231 151.382 798.129 220.279 798.129 305.005C798.129 389.731 729.231 458.629 644.505 458.629V458.619Z" stroke="url(#paint27_linear_103_288)" stroke-width="0.5" stroke-miterlimit="10"/>
</g>
<g opacity="0.36">
<path d="M644.505 446.498C566.463 446.498 503.002 383.037 503.002 305.005C503.002 226.973 566.463 163.502 644.505 163.502C722.548 163.502 785.998 226.962 785.998 304.995C785.998 383.027 722.538 446.488 644.505 446.488V446.498Z" stroke="url(#paint28_linear_103_288)" stroke-width="0.5" stroke-miterlimit="10"/>
<path d="M644.505 446.498C566.463 446.498 503.002 383.037 503.002 305.005C503.002 226.973 566.463 163.502 644.505 163.502C722.548 163.502 785.998 226.962 785.998 304.995C785.998 383.027 722.538 446.488 644.505 446.488V446.498Z" stroke="url(#paint29_linear_103_288)" stroke-width="0.5" stroke-miterlimit="10"/>
</g>
<g opacity="0.45">
<path d="M644.505 434.368C573.146 434.368 515.133 376.354 515.133 304.995C515.133 233.635 573.146 175.622 644.505 175.622C715.865 175.622 773.878 233.635 773.878 304.995C773.878 376.354 715.865 434.368 644.505 434.368Z" stroke="url(#paint30_linear_103_288)" stroke-width="0.5" stroke-miterlimit="10"/>
<path d="M644.505 434.368C573.146 434.368 515.133 376.354 515.133 304.995C515.133 233.635 573.146 175.622 644.505 175.622C715.865 175.622 773.878 233.635 773.878 304.995C773.878 376.354 715.865 434.368 644.505 434.368Z" stroke="url(#paint31_linear_103_288)" stroke-width="0.5" stroke-miterlimit="10"/>
</g>
<g opacity="0.55">
<path d="M644.505 422.247C579.829 422.247 527.263 369.681 527.263 305.005C527.263 240.329 579.829 187.763 644.505 187.763C709.181 187.763 761.748 240.329 761.748 305.005C761.748 369.681 709.181 422.247 644.505 422.247Z" stroke="url(#paint32_linear_103_288)" stroke-width="0.5" stroke-miterlimit="10"/>
<path d="M644.505 422.247C579.829 422.247 527.263 369.681 527.263 305.005C527.263 240.329 579.829 187.763 644.505 187.763C709.181 187.763 761.748 240.329 761.748 305.005C761.748 369.681 709.181 422.247 644.505 422.247Z" stroke="url(#paint33_linear_103_288)" stroke-width="0.5" stroke-miterlimit="10"/>
</g>
<g opacity="0.64">
<path d="M644.505 410.117C586.513 410.117 539.383 362.987 539.383 304.995C539.383 247.002 586.513 199.873 644.505 199.873C702.498 199.873 749.627 247.002 749.627 304.995C749.627 362.987 702.498 410.117 644.505 410.117Z" stroke="url(#paint34_linear_103_288)" stroke-width="0.5" stroke-miterlimit="10"/>
<path d="M644.505 410.117C586.513 410.117 539.383 362.987 539.383 304.995C539.383 247.002 586.513 199.873 644.505 199.873C702.498 199.873 749.627 247.002 749.627 304.995C749.627 362.987 702.498 410.117 644.505 410.117Z" stroke="url(#paint35_linear_103_288)" stroke-width="0.5" stroke-miterlimit="10"/>
</g>
<g opacity="0.73">
<path d="M644.505 397.997C593.186 397.997 551.514 356.314 551.514 305.005C551.514 253.696 593.196 212.014 644.505 212.014C695.814 212.014 737.497 253.696 737.497 305.005C737.497 356.314 695.814 397.997 644.505 397.997Z" stroke="url(#paint36_linear_103_288)" stroke-width="0.5" stroke-miterlimit="10"/>
<path d="M644.505 397.997C593.186 397.997 551.514 356.314 551.514 305.005C551.514 253.696 593.196 212.014 644.505 212.014C695.814 212.014 737.497 253.696 737.497 305.005C737.497 356.314 695.814 397.997 644.505 397.997Z" stroke="url(#paint37_linear_103_288)" stroke-width="0.5" stroke-miterlimit="10"/>
</g>
<g opacity="0.82">
<path d="M644.505 385.866C599.869 385.866 563.634 349.631 563.634 304.995C563.634 260.359 599.869 224.124 644.505 224.124C689.141 224.124 725.376 260.359 725.376 304.995C725.376 349.631 689.141 385.866 644.505 385.866Z" stroke="url(#paint38_linear_103_288)" stroke-width="0.5" stroke-miterlimit="10"/>
<path d="M644.505 385.866C599.869 385.866 563.634 349.631 563.634 304.995C563.634 260.359 599.869 224.124 644.505 224.124C689.141 224.124 725.376 260.359 725.376 304.995C725.376 349.631 689.141 385.866 644.505 385.866Z" stroke="url(#paint39_linear_103_288)" stroke-width="0.5" stroke-miterlimit="10"/>
</g>
<g opacity="0.91">
<path d="M644.505 373.746C606.552 373.746 575.765 342.948 575.765 305.005C575.765 267.063 606.563 236.265 644.505 236.265C682.448 236.265 713.246 267.063 713.246 305.005C713.246 342.948 682.448 373.746 644.505 373.746Z" stroke="url(#paint40_linear_103_288)" stroke-width="0.5" stroke-miterlimit="10"/>
<path d="M644.505 373.746C606.552 373.746 575.765 342.948 575.765 305.005C575.765 267.063 606.563 236.265 644.505 236.265C682.448 236.265 713.246 267.063 713.246 305.005C713.246 342.948 682.448 373.746 644.505 373.746Z" stroke="url(#paint41_linear_103_288)" stroke-width="0.5" stroke-miterlimit="10"/>
</g>
<path d="M644.505 361.615C675.776 361.615 701.126 336.265 701.126 304.995C701.126 273.724 675.776 248.375 644.505 248.375C613.235 248.375 587.885 273.724 587.885 304.995C587.885 336.265 613.235 361.615 644.505 361.615Z" stroke="url(#paint42_linear_103_288)" stroke-width="0.5" stroke-miterlimit="10"/>
<path d="M644.505 361.615C675.776 361.615 701.126 336.265 701.126 304.995C701.126 273.724 675.776 248.375 644.505 248.375C613.235 248.375 587.885 273.724 587.885 304.995C587.885 336.265 613.235 361.615 644.505 361.615Z" stroke="url(#paint43_linear_103_288)" stroke-width="0.5" stroke-miterlimit="10"/>
<path d="M53.2315 252.866C53.2315 245.764 47.4752 240 40.3657 240C33.2563 240 27.5 245.756 27.5 252.866C27.5 259.975 33.2563 265.731 40.3657 265.731C47.4752 265.731 53.2315 259.968 53.2315 252.866ZM31.3528 252.652C31.3528 247.667 35.3892 243.631 40.3734 243.631C45.3576 243.631 49.3939 247.667 49.3939 252.652C49.3939 257.636 45.3576 261.672 40.3734 261.672C35.3892 261.672 31.3528 257.636 31.3528 252.652Z" fill="#010112"/>
<path d="M40.5 216.899C48.909 216.899 56.8058 220.171 62.7532 226.118L65.5129 223.358C58.8315 216.677 49.9486 213 40.5 213C31.0513 213 22.1684 216.677 15.4871 223.358L18.2467 226.118C24.1942 220.171 32.0986 216.899 40.5 216.899Z" fill="url(#paint44_linear_103_288)"/>
<path d="M40.5001 226.217C33.964 226.217 27.8178 228.763 23.1929 233.388L25.9525 236.148C29.836 232.264 35.0037 230.124 40.5001 230.124C45.9965 230.124 51.1642 232.264 55.0476 236.148L57.8073 233.388C53.19 228.763 47.0438 226.217 40.5001 226.217Z" fill="url(#paint45_linear_103_288)"/>
<path d="M40.5 289.101C32.091 289.101 24.1942 285.829 18.2467 279.882L15.4871 282.642C22.1684 289.323 31.0513 293 40.5 293C49.9486 293 58.8315 289.323 65.5129 282.642L62.7532 279.882C56.8058 285.829 48.909 289.101 40.5 289.101Z" fill="url(#paint46_linear_103_288)"/>
<path d="M23.1929 272.62C27.8178 277.245 33.9564 279.79 40.5001 279.79C47.0438 279.79 53.1824 277.245 57.8073 272.62L55.0476 269.86C51.1642 273.743 45.9965 275.884 40.5001 275.884C35.0037 275.884 29.836 273.743 25.9525 269.86L23.1929 272.62Z" fill="url(#paint47_linear_103_288)"/>
<path d="M76.6013 253C76.6013 261.409 73.3294 269.306 67.382 275.253L70.1417 278.013C76.823 271.332 80.5 262.449 80.5 253C80.5 243.551 76.823 234.668 70.1417 227.987L67.382 230.747C73.3294 236.694 76.6013 244.599 76.6013 253Z" fill="url(#paint48_linear_103_288)"/>
<path d="M67.2827 253C67.2827 246.464 64.7371 240.318 60.1121 235.693L57.3525 238.452C61.2359 242.336 63.3764 247.504 63.3764 253C63.3764 258.496 61.2359 263.664 57.3525 267.548L60.1121 270.307C64.7371 265.69 67.2827 259.544 67.2827 253Z" fill="url(#paint49_linear_103_288)"/>
<path d="M4.39861 253C4.39861 244.591 7.67048 236.694 13.6179 230.747L10.8582 227.987C4.17692 234.668 0.499903 243.551 0.499903 253C0.499902 262.449 4.17692 271.332 10.8582 278.013L13.6179 275.253C7.67047 269.306 4.39861 261.409 4.39861 253Z" fill="url(#paint50_linear_103_288)"/>
<path d="M20.8802 235.693C16.2553 240.318 13.7096 246.456 13.7096 253C13.7096 259.544 16.2553 265.682 20.8802 270.307L23.6399 267.548C19.7565 263.664 17.616 258.496 17.616 253C17.616 247.504 19.7565 242.336 23.6399 238.452L20.8802 235.693Z" fill="url(#paint51_linear_103_288)"/>
<path d="M40.5 303L40.5 373" stroke="#A3A3AD" stroke-width="2"/>
<path d="M197.231 339.866C197.231 332.764 191.475 327 184.366 327C177.256 327 171.5 332.756 171.5 339.866C171.5 346.975 177.256 352.731 184.366 352.731C191.475 352.731 197.231 346.968 197.231 339.866ZM175.353 339.652C175.353 334.667 179.389 330.631 184.373 330.631C189.358 330.631 193.394 334.667 193.394 339.652C193.394 344.636 189.358 348.672 184.373 348.672C179.389 348.672 175.353 344.636 175.353 339.652Z" fill="#010112"/>
<path d="M184.5 303.899C192.909 303.899 200.806 307.171 206.753 313.118L209.513 310.358C202.832 303.677 193.949 300 184.5 300C175.051 300 166.168 303.677 159.487 310.358L162.247 313.118C168.194 307.171 176.099 303.899 184.5 303.899Z" fill="url(#paint52_linear_103_288)"/>
<path d="M184.5 313.217C177.964 313.217 171.818 315.763 167.193 320.388L169.953 323.148C173.836 319.264 179.004 317.124 184.5 317.124C189.997 317.124 195.164 319.264 199.048 323.148L201.807 320.388C197.19 315.763 191.044 313.217 184.5 313.217Z" fill="url(#paint53_linear_103_288)"/>
<path d="M184.5 376.101C176.091 376.101 168.194 372.829 162.247 366.882L159.487 369.642C166.168 376.323 175.051 380 184.5 380C193.949 380 202.832 376.323 209.513 369.642L206.753 366.882C200.806 372.829 192.909 376.101 184.5 376.101Z" fill="url(#paint54_linear_103_288)"/>
<path d="M167.193 359.62C171.818 364.245 177.956 366.79 184.5 366.79C191.044 366.79 197.182 364.245 201.807 359.62L199.048 356.86C195.164 360.743 189.997 362.884 184.5 362.884C179.004 362.884 173.836 360.743 169.953 356.86L167.193 359.62Z" fill="url(#paint55_linear_103_288)"/>
<path d="M220.601 340C220.601 348.409 217.329 356.306 211.382 362.253L214.142 365.013C220.823 358.332 224.5 349.449 224.5 340C224.5 330.551 220.823 321.668 214.142 314.987L211.382 317.747C217.329 323.694 220.601 331.599 220.601 340Z" fill="url(#paint56_linear_103_288)"/>
<path d="M211.283 340C211.283 333.464 208.737 327.318 204.112 322.693L201.352 325.452C205.236 329.336 207.376 334.504 207.376 340C207.376 345.496 205.236 350.664 201.352 354.548L204.112 357.307C208.737 352.69 211.283 346.544 211.283 340Z" fill="url(#paint57_linear_103_288)"/>
<path d="M148.399 340C148.399 331.591 151.67 323.694 157.618 317.747L154.858 314.987C148.177 321.668 144.5 330.551 144.5 340C144.5 349.449 148.177 358.332 154.858 365.013L157.618 362.253C151.67 356.306 148.399 348.409 148.399 340Z" fill="url(#paint58_linear_103_288)"/>
<path d="M164.88 322.693C160.255 327.318 157.71 333.456 157.71 340C157.71 346.544 160.255 352.682 164.88 357.307L167.64 354.548C163.756 350.664 161.616 345.496 161.616 340C161.616 334.504 163.756 329.336 167.64 325.452L164.88 322.693Z" fill="url(#paint59_linear_103_288)"/>
<path d="M184.5 390L184.5 460" stroke="#A3A3AD" stroke-width="2"/>
<path d="M302.231 188.866C302.231 181.764 296.475 176 289.366 176C282.256 176 276.5 181.756 276.5 188.866C276.5 195.975 282.256 201.731 289.366 201.731C296.475 201.731 302.231 195.968 302.231 188.866ZM280.353 188.652C280.353 183.667 284.389 179.631 289.373 179.631C294.358 179.631 298.394 183.667 298.394 188.652C298.394 193.636 294.358 197.672 289.373 197.672C284.389 197.672 280.353 193.636 280.353 188.652Z" fill="#010112"/>
<path d="M289.5 152.899C297.909 152.899 305.806 156.171 311.753 162.118L314.513 159.358C307.832 152.677 298.949 149 289.5 149C280.051 149 271.168 152.677 264.487 159.358L267.247 162.118C273.194 156.171 281.099 152.899 289.5 152.899Z" fill="url(#paint60_linear_103_288)"/>
<path d="M289.5 162.217C282.964 162.217 276.818 164.763 272.193 169.388L274.953 172.148C278.836 168.264 284.004 166.124 289.5 166.124C294.997 166.124 300.164 168.264 304.048 172.148L306.807 169.388C302.19 164.763 296.044 162.217 289.5 162.217Z" fill="url(#paint61_linear_103_288)"/>
<path d="M289.5 225.101C281.091 225.101 273.194 221.829 267.247 215.882L264.487 218.642C271.168 225.323 280.051 229 289.5 229C298.949 229 307.832 225.323 314.513 218.642L311.753 215.882C305.806 221.829 297.909 225.101 289.5 225.101Z" fill="url(#paint62_linear_103_288)"/>
<path d="M272.193 208.62C276.818 213.245 282.956 215.79 289.5 215.79C296.044 215.79 302.182 213.245 306.807 208.62L304.048 205.86C300.164 209.743 294.997 211.884 289.5 211.884C284.004 211.884 278.836 209.743 274.953 205.86L272.193 208.62Z" fill="url(#paint63_linear_103_288)"/>
<path d="M325.601 189C325.601 197.409 322.329 205.306 316.382 211.253L319.142 214.013C325.823 207.332 329.5 198.449 329.5 189C329.5 179.551 325.823 170.668 319.142 163.987L316.382 166.747C322.329 172.694 325.601 180.599 325.601 189Z" fill="url(#paint64_linear_103_288)"/>
<path d="M316.283 189C316.283 182.464 313.737 176.318 309.112 171.693L306.352 174.452C310.236 178.336 312.376 183.504 312.376 189C312.376 194.496 310.236 199.664 306.352 203.548L309.112 206.307C313.737 201.69 316.283 195.544 316.283 189Z" fill="url(#paint65_linear_103_288)"/>
<path d="M253.399 189C253.399 180.591 256.67 172.694 262.618 166.747L259.858 163.987C253.177 170.668 249.5 179.551 249.5 189C249.5 198.449 253.177 207.332 259.858 214.013L262.618 211.253C256.67 205.306 253.399 197.409 253.399 189Z" fill="url(#paint66_linear_103_288)"/>
<path d="M269.88 171.693C265.255 176.318 262.71 182.456 262.71 189C262.71 195.544 265.255 201.682 269.88 206.307L272.64 203.548C268.756 199.664 266.616 194.496 266.616 189C266.616 183.504 268.756 178.336 272.64 174.452L269.88 171.693Z" fill="url(#paint67_linear_103_288)"/>
<path d="M289.5 239L289.5 309" stroke="#A3A3AD" stroke-width="2"/>
<path d="M657.231 304.866C657.231 297.764 651.475 292 644.366 292C637.256 292 631.5 297.756 631.5 304.866C631.5 311.975 637.256 317.731 644.366 317.731C651.475 317.731 657.231 311.968 657.231 304.866ZM635.353 304.652C635.353 299.667 639.389 295.631 644.373 295.631C649.358 295.631 653.394 299.667 653.394 304.652C653.394 309.636 649.358 313.672 644.373 313.672C639.389 313.672 635.353 309.636 635.353 304.652Z" fill="#010112"/>
<path d="M644.5 268.899C652.909 268.899 660.806 272.171 666.753 278.118L669.513 275.358C662.832 268.677 653.949 265 644.5 265C635.051 265 626.168 268.677 619.487 275.358L622.247 278.118C628.194 272.171 636.099 268.899 644.5 268.899Z" fill="url(#paint68_linear_103_288)"/>
<path d="M644.5 278.217C637.964 278.217 631.818 280.763 627.193 285.388L629.953 288.148C633.836 284.264 639.004 282.124 644.5 282.124C649.997 282.124 655.164 284.264 659.048 288.148L661.807 285.388C657.19 280.763 651.044 278.217 644.5 278.217Z" fill="url(#paint69_linear_103_288)"/>
<path d="M644.5 341.101C636.091 341.101 628.194 337.829 622.247 331.882L619.487 334.642C626.168 341.323 635.051 345 644.5 345C653.949 345 662.832 341.323 669.513 334.642L666.753 331.882C660.806 337.829 652.909 341.101 644.5 341.101Z" fill="url(#paint70_linear_103_288)"/>
<path d="M627.193 324.62C631.818 329.245 637.956 331.79 644.5 331.79C651.044 331.79 657.182 329.245 661.807 324.62L659.048 321.86C655.164 325.743 649.997 327.884 644.5 327.884C639.004 327.884 633.836 325.743 629.953 321.86L627.193 324.62Z" fill="url(#paint71_linear_103_288)"/>
<path d="M680.601 305C680.601 313.409 677.329 321.306 671.382 327.253L674.142 330.013C680.823 323.332 684.5 314.449 684.5 305C684.5 295.551 680.823 286.668 674.142 279.987L671.382 282.747C677.329 288.694 680.601 296.599 680.601 305Z" fill="url(#paint72_linear_103_288)"/>
<path d="M671.283 305C671.283 298.464 668.737 292.318 664.112 287.693L661.352 290.452C665.236 294.336 667.376 299.504 667.376 305C667.376 310.496 665.236 315.664 661.352 319.548L664.112 322.307C668.737 317.69 671.283 311.544 671.283 305Z" fill="url(#paint73_linear_103_288)"/>
<path d="M608.399 305C608.399 296.591 611.67 288.694 617.618 282.747L614.858 279.987C608.177 286.668 604.5 295.551 604.5 305C604.5 314.449 608.177 323.332 614.858 330.013L617.618 327.253C611.67 321.306 608.399 313.409 608.399 305Z" fill="url(#paint74_linear_103_288)"/>
<path d="M624.88 287.693C620.255 292.318 617.71 298.456 617.71 305C617.71 311.544 620.255 317.682 624.88 322.307L627.64 319.548C623.756 315.664 621.616 310.496 621.616 305C621.616 299.504 623.756 294.336 627.64 290.452L624.88 287.693Z" fill="url(#paint75_linear_103_288)"/>
<path d="M644.5 355L644.5 425" stroke="#A3A3AD" stroke-width="2"/>
<path d="M797.231 217.866C797.231 210.764 791.475 205 784.366 205C777.256 205 771.5 210.756 771.5 217.866C771.5 224.975 777.256 230.731 784.366 230.731C791.475 230.731 797.231 224.968 797.231 217.866ZM775.353 217.652C775.353 212.667 779.389 208.631 784.373 208.631C789.358 208.631 793.394 212.667 793.394 217.652C793.394 222.636 789.358 226.672 784.373 226.672C779.389 226.672 775.353 222.636 775.353 217.652Z" fill="black"/>
<path d="M784.5 181.899C792.909 181.899 800.806 185.171 806.753 191.118L809.513 188.358C802.832 181.677 793.949 178 784.5 178C775.051 178 766.168 181.677 759.487 188.358L762.247 191.118C768.194 185.171 776.099 181.899 784.5 181.899Z" fill="url(#paint76_linear_103_288)"/>
<path d="M784.5 191.217C777.964 191.217 771.818 193.763 767.193 198.388L769.953 201.148C773.836 197.264 779.004 195.124 784.5 195.124C789.997 195.124 795.164 197.264 799.048 201.148L801.807 198.388C797.19 193.763 791.044 191.217 784.5 191.217Z" fill="url(#paint77_linear_103_288)"/>
<path d="M784.5 254.101C776.091 254.101 768.194 250.829 762.247 244.882L759.487 247.642C766.168 254.323 775.051 258 784.5 258C793.949 258 802.832 254.323 809.513 247.642L806.753 244.882C800.806 250.829 792.909 254.101 784.5 254.101Z" fill="url(#paint78_linear_103_288)"/>
<path d="M767.193 237.62C771.818 242.245 777.956 244.79 784.5 244.79C791.044 244.79 797.182 242.245 801.807 237.62L799.048 234.86C795.164 238.743 789.997 240.884 784.5 240.884C779.004 240.884 773.836 238.743 769.953 234.86L767.193 237.62Z" fill="url(#paint79_linear_103_288)"/>
<path d="M820.601 218C820.601 226.409 817.329 234.306 811.382 240.253L814.142 243.013C820.823 236.332 824.5 227.449 824.5 218C824.5 208.551 820.823 199.668 814.142 192.987L811.382 195.747C817.329 201.694 820.601 209.599 820.601 218Z" fill="url(#paint80_linear_103_288)"/>
<path d="M811.283 218C811.283 211.464 808.737 205.318 804.112 200.693L801.352 203.452C805.236 207.336 807.376 212.504 807.376 218C807.376 223.496 805.236 228.664 801.352 232.548L804.112 235.307C808.737 230.69 811.283 224.544 811.283 218Z" fill="url(#paint81_linear_103_288)"/>
<path d="M748.399 218C748.399 209.591 751.67 201.694 757.618 195.747L754.858 192.987C748.177 199.668 744.5 208.551 744.5 218C744.5 227.449 748.177 236.332 754.858 243.013L757.618 240.253C751.67 234.306 748.399 226.409 748.399 218Z" fill="url(#paint82_linear_103_288)"/>
<path d="M764.88 200.693C760.255 205.318 757.71 211.456 757.71 218C757.71 224.544 760.255 230.682 764.88 235.307L767.64 232.548C763.756 228.664 761.616 223.496 761.616 218C761.616 212.504 763.756 207.336 767.64 203.452L764.88 200.693Z" fill="url(#paint83_linear_103_288)"/>
<path d="M784.5 268L784.5 338" stroke="#A3A3AD" stroke-width="2"/>
<path d="M978.231 286.866C978.231 279.764 972.475 274 965.366 274C958.256 274 952.5 279.756 952.5 286.866C952.5 293.975 958.256 299.731 965.366 299.731C972.475 299.731 978.231 293.968 978.231 286.866ZM956.353 286.652C956.353 281.667 960.389 277.631 965.373 277.631C970.358 277.631 974.394 281.667 974.394 286.652C974.394 291.636 970.358 295.672 965.373 295.672C960.389 295.672 956.353 291.636 956.353 286.652Z" fill="#010112"/>
<path d="M965.5 250.899C973.909 250.899 981.806 254.171 987.753 260.118L990.513 257.358C983.832 250.677 974.949 247 965.5 247C956.051 247 947.168 250.677 940.487 257.358L943.247 260.118C949.194 254.171 957.099 250.899 965.5 250.899Z" fill="url(#paint84_linear_103_288)"/>
<path d="M965.5 260.217C958.964 260.217 952.818 262.763 948.193 267.388L950.953 270.148C954.836 266.264 960.004 264.124 965.5 264.124C970.997 264.124 976.164 266.264 980.048 270.148L982.807 267.388C978.19 262.763 972.044 260.217 965.5 260.217Z" fill="url(#paint85_linear_103_288)"/>
<path d="M965.5 323.101C957.091 323.101 949.194 319.829 943.247 313.882L940.487 316.642C947.168 323.323 956.051 327 965.5 327C974.949 327 983.832 323.323 990.513 316.642L987.753 313.882C981.806 319.829 973.909 323.101 965.5 323.101Z" fill="url(#paint86_linear_103_288)"/>
<path d="M948.193 306.62C952.818 311.245 958.956 313.79 965.5 313.79C972.044 313.79 978.182 311.245 982.807 306.62L980.048 303.86C976.164 307.743 970.997 309.884 965.5 309.884C960.004 309.884 954.836 307.743 950.953 303.86L948.193 306.62Z" fill="url(#paint87_linear_103_288)"/>
<path d="M1001.6 287C1001.6 295.409 998.329 303.306 992.382 309.253L995.142 312.013C1001.82 305.332 1005.5 296.449 1005.5 287C1005.5 277.551 1001.82 268.668 995.142 261.987L992.382 264.747C998.329 270.694 1001.6 278.599 1001.6 287Z" fill="url(#paint88_linear_103_288)"/>
<path d="M992.283 287C992.283 280.464 989.737 274.318 985.112 269.693L982.352 272.452C986.236 276.336 988.376 281.504 988.376 287C988.376 292.496 986.236 297.664 982.352 301.548L985.112 304.307C989.737 299.69 992.283 293.544 992.283 287Z" fill="url(#paint89_linear_103_288)"/>
<path d="M929.399 287C929.399 278.591 932.67 270.694 938.618 264.747L935.858 261.987C929.177 268.668 925.5 277.551 925.5 287C925.5 296.449 929.177 305.332 935.858 312.013L938.618 309.253C932.67 303.306 929.399 295.409 929.399 287Z" fill="url(#paint90_linear_103_288)"/>
<path d="M945.88 269.693C941.255 274.318 938.71 280.456 938.71 287C938.71 293.544 941.255 299.682 945.88 304.307L948.64 301.548C944.756 297.664 942.616 292.496 942.616 287C942.616 281.504 944.756 276.336 948.64 272.452L945.88 269.693Z" fill="url(#paint91_linear_103_288)"/>
<path d="M965.5 337L965.5 407" stroke="#A3A3AD" stroke-width="2"/>
<defs>
<linearGradient id="paint0_linear_103_288" x1="97.2437" y1="-25.7986" x2="229.342" y2="367.88" gradientUnits="userSpaceOnUse">
<stop stop-color="#F9DEA7"/>
<stop offset="0.6" stop-color="#F7A1CC"/>
</linearGradient>
<linearGradient id="paint1_linear_103_288" x1="289.505" y1="12.1306" x2="289.505" y2="367.88" gradientUnits="userSpaceOnUse">
<stop stop-color="#F7A1CC" stop-opacity="0"/>
<stop offset="0.9" stop-color="#F7A1CC" stop-opacity="0.3"/>
</linearGradient>
<linearGradient id="paint2_linear_103_288" x1="110.345" y1="-11.0927" x2="233.438" y2="355.749" gradientUnits="userSpaceOnUse">
<stop stop-color="#F9DEA7"/>
<stop offset="0.6" stop-color="#F7A1CC"/>
</linearGradient>
<linearGradient id="paint3_linear_103_288" x1="289.5" y1="24.2509" x2="289.5" y2="355.749" gradientUnits="userSpaceOnUse">
<stop stop-color="#F7A1CC" stop-opacity="0"/>
<stop offset="0.9" stop-color="#F7A1CC" stop-opacity="0.3"/>
</linearGradient>
<linearGradient id="paint4_linear_103_288" x1="123.456" y1="3.62363" x2="237.544" y2="343.629" gradientUnits="userSpaceOnUse">
<stop stop-color="#F9DEA7"/>
<stop offset="0.6" stop-color="#F7A1CC"/>
</linearGradient>
<linearGradient id="paint5_linear_103_288" x1="289.505" y1="36.3816" x2="289.505" y2="343.629" gradientUnits="userSpaceOnUse">
<stop stop-color="#F7A1CC" stop-opacity="0"/>
<stop offset="0.9" stop-color="#F7A1CC" stop-opacity="0.3"/>
</linearGradient>
<linearGradient id="paint6_linear_103_288" x1="136.557" y1="18.3293" x2="241.64" y2="331.498" gradientUnits="userSpaceOnUse">
<stop stop-color="#F9DEA7"/>
<stop offset="0.6" stop-color="#F7A1CC"/>
</linearGradient>
<linearGradient id="paint7_linear_103_288" x1="289.5" y1="48.5017" x2="289.5" y2="331.498" gradientUnits="userSpaceOnUse">
<stop stop-color="#F7A1CC" stop-opacity="0"/>
<stop offset="0.9" stop-color="#F7A1CC" stop-opacity="0.3"/>
</linearGradient>
<linearGradient id="paint8_linear_103_288" x1="149.668" y1="33.0351" x2="245.747" y2="319.368" gradientUnits="userSpaceOnUse">
<stop stop-color="#F9DEA7"/>
<stop offset="0.6" stop-color="#F7A1CC"/>
</linearGradient>
<linearGradient id="paint9_linear_103_288" x1="289.505" y1="60.622" x2="289.505" y2="319.368" gradientUnits="userSpaceOnUse">
<stop stop-color="#F7A1CC" stop-opacity="0"/>
<stop offset="0.9" stop-color="#F7A1CC" stop-opacity="0.3"/>
</linearGradient>
<linearGradient id="paint10_linear_103_288" x1="162.78" y1="47.7629" x2="249.85" y2="307.247" gradientUnits="userSpaceOnUse">
<stop stop-color="#F9DEA7"/>
<stop offset="0.6" stop-color="#F7A1CC"/>
</linearGradient>
<linearGradient id="paint11_linear_103_288" x1="289.505" y1="72.763" x2="289.505" y2="307.247" gradientUnits="userSpaceOnUse">
<stop stop-color="#F7A1CC" stop-opacity="0"/>
<stop offset="0.9" stop-color="#F7A1CC" stop-opacity="0.3"/>
</linearGradient>
<linearGradient id="paint12_linear_103_288" x1="175.881" y1="62.4571" x2="253.949" y2="295.117" gradientUnits="userSpaceOnUse">
<stop stop-color="#F9DEA7"/>
<stop offset="0.6" stop-color="#F7A1CC"/>
</linearGradient>
<linearGradient id="paint13_linear_103_288" x1="289.505" y1="84.8728" x2="289.505" y2="295.117" gradientUnits="userSpaceOnUse">
<stop stop-color="#F7A1CC" stop-opacity="0"/>
<stop offset="0.9" stop-color="#F7A1CC" stop-opacity="0.3"/>
</linearGradient>
<linearGradient id="paint14_linear_103_288" x1="188.993" y1="77.1849" x2="258.052" y2="282.997" gradientUnits="userSpaceOnUse">
<stop stop-color="#F9DEA7"/>
<stop offset="0.6" stop-color="#F7A1CC"/>
</linearGradient>
<linearGradient id="paint15_linear_103_288" x1="289.505" y1="97.0139" x2="289.505" y2="282.997" gradientUnits="userSpaceOnUse">
<stop stop-color="#F7A1CC" stop-opacity="0"/>
<stop offset="0.9" stop-color="#F7A1CC" stop-opacity="0.3"/>
</linearGradient>
<linearGradient id="paint16_linear_103_288" x1="202.093" y1="91.8791" x2="262.152" y2="270.866" gradientUnits="userSpaceOnUse">
<stop stop-color="#F9DEA7"/>
<stop offset="0.6" stop-color="#F7A1CC"/>
</linearGradient>
<linearGradient id="paint17_linear_103_288" x1="289.505" y1="109.124" x2="289.505" y2="270.866" gradientUnits="userSpaceOnUse">
<stop stop-color="#F7A1CC" stop-opacity="0"/>
<stop offset="0.9" stop-color="#F7A1CC" stop-opacity="0.3"/>
</linearGradient>
<linearGradient id="paint18_linear_103_288" x1="215.205" y1="106.607" x2="266.255" y2="258.746" gradientUnits="userSpaceOnUse">
<stop stop-color="#F9DEA7"/>
<stop offset="0.6" stop-color="#F7A1CC"/>
</linearGradient>
<linearGradient id="paint19_linear_103_288" x1="289.505" y1="121.265" x2="289.505" y2="258.746" gradientUnits="userSpaceOnUse">
<stop stop-color="#F7A1CC" stop-opacity="0"/>
<stop offset="0.9" stop-color="#F7A1CC" stop-opacity="0.3"/>
</linearGradient>
<linearGradient id="paint20_linear_103_288" x1="228.305" y1="121.301" x2="270.354" y2="246.615" gradientUnits="userSpaceOnUse">
<stop stop-color="#F9DEA7"/>
<stop offset="0.6" stop-color="#F7A1CC"/>
</linearGradient>
<linearGradient id="paint21_linear_103_288" x1="289.505" y1="133.375" x2="289.505" y2="246.615" gradientUnits="userSpaceOnUse">
<stop stop-color="#F7A1CC" stop-opacity="0"/>
<stop offset="0.9" stop-color="#F7A1CC" stop-opacity="0.3"/>
</linearGradient>
<linearGradient id="paint22_linear_103_288" x1="452.244" y1="89.2014" x2="584.342" y2="482.88" gradientUnits="userSpaceOnUse">
<stop stop-color="#F9DEA7"/>
<stop offset="0.6" stop-color="#86DEFF"/>
</linearGradient>
<linearGradient id="paint23_linear_103_288" x1="644.505" y1="127.131" x2="644.505" y2="482.88" gradientUnits="userSpaceOnUse">
<stop stop-color="#86DEFF" stop-opacity="0"/>
<stop offset="0.9" stop-color="#86DEFF" stop-opacity="0.3"/>
</linearGradient>
<linearGradient id="paint24_linear_103_288" x1="465.345" y1="103.907" x2="588.438" y2="470.749" gradientUnits="userSpaceOnUse">
<stop stop-color="#F9DEA7"/>
<stop offset="0.6" stop-color="#86DEFF"/>
</linearGradient>
<linearGradient id="paint25_linear_103_288" x1="644.5" y1="139.251" x2="644.5" y2="470.749" gradientUnits="userSpaceOnUse">
<stop stop-color="#86DEFF" stop-opacity="0"/>
<stop offset="0.9" stop-color="#86DEFF" stop-opacity="0.3"/>
</linearGradient>
<linearGradient id="paint26_linear_103_288" x1="478.456" y1="118.624" x2="592.544" y2="458.629" gradientUnits="userSpaceOnUse">
<stop stop-color="#F9DEA7"/>
<stop offset="0.6" stop-color="#86DEFF"/>
</linearGradient>
<linearGradient id="paint27_linear_103_288" x1="644.505" y1="151.382" x2="644.505" y2="458.629" gradientUnits="userSpaceOnUse">
<stop stop-color="#86DEFF" stop-opacity="0"/>
<stop offset="0.9" stop-color="#86DEFF" stop-opacity="0.3"/>
</linearGradient>
<linearGradient id="paint28_linear_103_288" x1="491.557" y1="133.329" x2="596.64" y2="446.498" gradientUnits="userSpaceOnUse">
<stop stop-color="#F9DEA7"/>
<stop offset="0.6" stop-color="#86DEFF"/>
</linearGradient>
<linearGradient id="paint29_linear_103_288" x1="644.5" y1="163.502" x2="644.5" y2="446.498" gradientUnits="userSpaceOnUse">
<stop stop-color="#86DEFF" stop-opacity="0"/>
<stop offset="0.9" stop-color="#86DEFF" stop-opacity="0.3"/>
</linearGradient>
<linearGradient id="paint30_linear_103_288" x1="504.669" y1="148.035" x2="600.747" y2="434.368" gradientUnits="userSpaceOnUse">
<stop stop-color="#F9DEA7"/>
<stop offset="0.6" stop-color="#86DEFF"/>
</linearGradient>
<linearGradient id="paint31_linear_103_288" x1="644.505" y1="175.622" x2="644.505" y2="434.368" gradientUnits="userSpaceOnUse">
<stop stop-color="#86DEFF" stop-opacity="0"/>
<stop offset="0.9" stop-color="#86DEFF" stop-opacity="0.3"/>
</linearGradient>
<linearGradient id="paint32_linear_103_288" x1="517.78" y1="162.763" x2="604.85" y2="422.247" gradientUnits="userSpaceOnUse">
<stop stop-color="#F9DEA7"/>
<stop offset="0.6" stop-color="#86DEFF"/>
</linearGradient>
<linearGradient id="paint33_linear_103_288" x1="644.505" y1="187.763" x2="644.505" y2="422.247" gradientUnits="userSpaceOnUse">
<stop stop-color="#86DEFF" stop-opacity="0"/>
<stop offset="0.9" stop-color="#86DEFF" stop-opacity="0.3"/>
</linearGradient>
<linearGradient id="paint34_linear_103_288" x1="530.881" y1="177.457" x2="608.949" y2="410.117" gradientUnits="userSpaceOnUse">
<stop stop-color="#F9DEA7"/>
<stop offset="0.6" stop-color="#86DEFF"/>
</linearGradient>
<linearGradient id="paint35_linear_103_288" x1="644.505" y1="199.873" x2="644.505" y2="410.117" gradientUnits="userSpaceOnUse">
<stop stop-color="#86DEFF" stop-opacity="0"/>
<stop offset="0.9" stop-color="#86DEFF" stop-opacity="0.3"/>
</linearGradient>
<linearGradient id="paint36_linear_103_288" x1="543.993" y1="192.185" x2="613.052" y2="397.997" gradientUnits="userSpaceOnUse">
<stop stop-color="#F9DEA7"/>
<stop offset="0.6" stop-color="#86DEFF"/>
</linearGradient>
<linearGradient id="paint37_linear_103_288" x1="644.505" y1="212.014" x2="644.505" y2="397.997" gradientUnits="userSpaceOnUse">
<stop stop-color="#86DEFF" stop-opacity="0"/>
<stop offset="0.9" stop-color="#86DEFF" stop-opacity="0.3"/>
</linearGradient>
<linearGradient id="paint38_linear_103_288" x1="557.093" y1="206.879" x2="617.152" y2="385.866" gradientUnits="userSpaceOnUse">
<stop stop-color="#F9DEA7"/>
<stop offset="0.6" stop-color="#86DEFF"/>
</linearGradient>
<linearGradient id="paint39_linear_103_288" x1="644.505" y1="224.124" x2="644.505" y2="385.866" gradientUnits="userSpaceOnUse">
<stop stop-color="#86DEFF" stop-opacity="0"/>
<stop offset="0.9" stop-color="#86DEFF" stop-opacity="0.3"/>
</linearGradient>
<linearGradient id="paint40_linear_103_288" x1="570.205" y1="221.607" x2="621.255" y2="373.746" gradientUnits="userSpaceOnUse">
<stop stop-color="#F9DEA7"/>
<stop offset="0.6" stop-color="#86DEFF"/>
</linearGradient>
<linearGradient id="paint41_linear_103_288" x1="644.505" y1="236.265" x2="644.505" y2="373.746" gradientUnits="userSpaceOnUse">
<stop stop-color="#86DEFF" stop-opacity="0"/>
<stop offset="0.9" stop-color="#86DEFF" stop-opacity="0.3"/>
</linearGradient>
<linearGradient id="paint42_linear_103_288" x1="583.305" y1="236.301" x2="625.354" y2="361.615" gradientUnits="userSpaceOnUse">
<stop stop-color="#F9DEA7"/>
<stop offset="0.6" stop-color="#86DEFF"/>
</linearGradient>
<linearGradient id="paint43_linear_103_288" x1="644.505" y1="248.375" x2="644.505" y2="361.615" gradientUnits="userSpaceOnUse">
<stop stop-color="#86DEFF" stop-opacity="0"/>
<stop offset="0.9" stop-color="#86DEFF" stop-opacity="0.3"/>
</linearGradient>
<linearGradient id="paint44_linear_103_288" x1="65.5052" y1="219.559" x2="15.4871" y2="219.559" gradientUnits="userSpaceOnUse">
<stop stop-color="#AAF2C7"/>
<stop offset="0.6" stop-color="#9ADBEF"/>
</linearGradient>
<linearGradient id="paint45_linear_103_288" x1="23.1929" y1="231.179" x2="57.7997" y2="231.179" gradientUnits="userSpaceOnUse">
<stop stop-color="#AAF2C7"/>
<stop offset="0.6" stop-color="#9ADBEF"/>
</linearGradient>
<linearGradient id="paint46_linear_103_288" x1="15.4871" y1="286.449" x2="65.5052" y2="286.449" gradientUnits="userSpaceOnUse">
<stop stop-color="#AAF2C7"/>
<stop offset="0.6" stop-color="#9ADBEF"/>
</linearGradient>
<linearGradient id="paint47_linear_103_288" x1="57.7997" y1="274.829" x2="23.1929" y2="274.829" gradientUnits="userSpaceOnUse">
<stop stop-color="#AAF2C7"/>
<stop offset="0.6" stop-color="#9ADBEF"/>
</linearGradient>
<linearGradient id="paint48_linear_103_288" x1="73.941" y1="278.005" x2="73.941" y2="227.987" gradientUnits="userSpaceOnUse">
<stop stop-color="#AAF2C7"/>
<stop offset="0.6" stop-color="#9ADBEF"/>
</linearGradient>
<linearGradient id="paint49_linear_103_288" x1="62.3214" y1="235.693" x2="62.3214" y2="270.3" gradientUnits="userSpaceOnUse">
<stop stop-color="#AAF2C7"/>
<stop offset="0.6" stop-color="#9ADBEF"/>
</linearGradient>
<linearGradient id="paint50_linear_103_288" x1="7.05127" y1="227.987" x2="7.05127" y2="278.005" gradientUnits="userSpaceOnUse">
<stop stop-color="#AAF2C7"/>
<stop offset="0.6" stop-color="#9ADBEF"/>
</linearGradient>
<linearGradient id="paint51_linear_103_288" x1="18.6709" y1="270.3" x2="18.6709" y2="235.693" gradientUnits="userSpaceOnUse">
<stop stop-color="#AAF2C7"/>
<stop offset="0.6" stop-color="#9ADBEF"/>
</linearGradient>
<linearGradient id="paint52_linear_103_288" x1="209.505" y1="306.559" x2="159.487" y2="306.559" gradientUnits="userSpaceOnUse">
<stop stop-color="#F7A1CC"/>
<stop offset="0.6" stop-color="#86DEFF"/>
</linearGradient>
<linearGradient id="paint53_linear_103_288" x1="167.193" y1="318.179" x2="201.8" y2="318.179" gradientUnits="userSpaceOnUse">
<stop stop-color="#F7A1CC"/>
<stop offset="0.6" stop-color="#86DEFF"/>
</linearGradient>
<linearGradient id="paint54_linear_103_288" x1="159.487" y1="373.449" x2="209.505" y2="373.449" gradientUnits="userSpaceOnUse">
<stop stop-color="#F7A1CC"/>
<stop offset="0.6" stop-color="#86DEFF"/>
</linearGradient>
<linearGradient id="paint55_linear_103_288" x1="201.8" y1="361.829" x2="167.193" y2="361.829" gradientUnits="userSpaceOnUse">
<stop stop-color="#F7A1CC"/>
<stop offset="0.6" stop-color="#86DEFF"/>
</linearGradient>
<linearGradient id="paint56_linear_103_288" x1="217.941" y1="365.005" x2="217.941" y2="314.987" gradientUnits="userSpaceOnUse">
<stop stop-color="#F7A1CC"/>
<stop offset="0.6" stop-color="#86DEFF"/>
</linearGradient>
<linearGradient id="paint57_linear_103_288" x1="206.321" y1="322.693" x2="206.321" y2="357.3" gradientUnits="userSpaceOnUse">
<stop stop-color="#F7A1CC"/>
<stop offset="0.6" stop-color="#86DEFF"/>
</linearGradient>
<linearGradient id="paint58_linear_103_288" x1="151.051" y1="314.987" x2="151.051" y2="365.005" gradientUnits="userSpaceOnUse">
<stop stop-color="#F7A1CC"/>
<stop offset="0.6" stop-color="#86DEFF"/>
</linearGradient>
<linearGradient id="paint59_linear_103_288" x1="162.671" y1="357.3" x2="162.671" y2="322.693" gradientUnits="userSpaceOnUse">
<stop stop-color="#F7A1CC"/>
<stop offset="0.6" stop-color="#86DEFF"/>
</linearGradient>
<linearGradient id="paint60_linear_103_288" x1="314.505" y1="155.559" x2="264.487" y2="155.559" gradientUnits="userSpaceOnUse">
<stop stop-color="#F9DEA7"/>
<stop offset="0.6" stop-color="#F7A1CC"/>
</linearGradient>
<linearGradient id="paint61_linear_103_288" x1="272.193" y1="167.179" x2="306.8" y2="167.179" gradientUnits="userSpaceOnUse">
<stop stop-color="#F9DEA7"/>
<stop offset="0.6" stop-color="#F7A1CC"/>
</linearGradient>
<linearGradient id="paint62_linear_103_288" x1="264.487" y1="222.449" x2="314.505" y2="222.449" gradientUnits="userSpaceOnUse">
<stop stop-color="#F9DEA7"/>
<stop offset="0.6" stop-color="#F7A1CC"/>
</linearGradient>
<linearGradient id="paint63_linear_103_288" x1="306.8" y1="210.829" x2="272.193" y2="210.829" gradientUnits="userSpaceOnUse">
<stop stop-color="#F9DEA7"/>
<stop offset="0.6" stop-color="#F7A1CC"/>
</linearGradient>
<linearGradient id="paint64_linear_103_288" x1="322.941" y1="214.005" x2="322.941" y2="163.987" gradientUnits="userSpaceOnUse">
<stop stop-color="#F9DEA7"/>
<stop offset="0.6" stop-color="#F7A1CC"/>
</linearGradient>
<linearGradient id="paint65_linear_103_288" x1="311.321" y1="171.693" x2="311.321" y2="206.3" gradientUnits="userSpaceOnUse">
<stop stop-color="#F9DEA7"/>
<stop offset="0.6" stop-color="#F7A1CC"/>
</linearGradient>
<linearGradient id="paint66_linear_103_288" x1="256.051" y1="163.987" x2="256.051" y2="214.005" gradientUnits="userSpaceOnUse">
<stop stop-color="#F9DEA7"/>
<stop offset="0.6" stop-color="#F7A1CC"/>
</linearGradient>
<linearGradient id="paint67_linear_103_288" x1="267.671" y1="206.3" x2="267.671" y2="171.693" gradientUnits="userSpaceOnUse">
<stop stop-color="#F9DEA7"/>
<stop offset="0.6" stop-color="#F7A1CC"/>
</linearGradient>
<linearGradient id="paint68_linear_103_288" x1="669.505" y1="271.559" x2="619.487" y2="271.559" gradientUnits="userSpaceOnUse">
<stop stop-color="#86DEFF"/>
<stop offset="0.6" stop-color="#F9DEA7"/>
</linearGradient>
<linearGradient id="paint69_linear_103_288" x1="627.193" y1="283.179" x2="661.8" y2="283.179" gradientUnits="userSpaceOnUse">
<stop stop-color="#86DEFF"/>
<stop offset="0.6" stop-color="#F9DEA7"/>
</linearGradient>
<linearGradient id="paint70_linear_103_288" x1="619.487" y1="338.449" x2="669.505" y2="338.449" gradientUnits="userSpaceOnUse">
<stop stop-color="#86DEFF"/>
<stop offset="0.6" stop-color="#F9DEA7"/>
</linearGradient>
<linearGradient id="paint71_linear_103_288" x1="661.8" y1="326.829" x2="627.193" y2="326.829" gradientUnits="userSpaceOnUse">
<stop stop-color="#86DEFF"/>
<stop offset="0.6" stop-color="#F9DEA7"/>
</linearGradient>
<linearGradient id="paint72_linear_103_288" x1="677.941" y1="330.005" x2="677.941" y2="279.987" gradientUnits="userSpaceOnUse">
<stop stop-color="#86DEFF"/>
<stop offset="0.6" stop-color="#F9DEA7"/>
</linearGradient>
<linearGradient id="paint73_linear_103_288" x1="666.321" y1="287.693" x2="666.321" y2="322.3" gradientUnits="userSpaceOnUse">
<stop stop-color="#86DEFF"/>
<stop offset="0.6" stop-color="#F9DEA7"/>
</linearGradient>
<linearGradient id="paint74_linear_103_288" x1="611.051" y1="279.987" x2="611.051" y2="330.005" gradientUnits="userSpaceOnUse">
<stop stop-color="#86DEFF"/>
<stop offset="0.6" stop-color="#F9DEA7"/>
</linearGradient>
<linearGradient id="paint75_linear_103_288" x1="622.671" y1="322.3" x2="622.671" y2="287.693" gradientUnits="userSpaceOnUse">
<stop stop-color="#86DEFF"/>
<stop offset="0.6" stop-color="#F9DEA7"/>
</linearGradient>
<linearGradient id="paint76_linear_103_288" x1="809.505" y1="184.559" x2="759.487" y2="184.559" gradientUnits="userSpaceOnUse">
<stop stop-color="#F7A1CC"/>
<stop offset="0.6" stop-color="#86DEFF"/>
</linearGradient>
<linearGradient id="paint77_linear_103_288" x1="767.193" y1="196.179" x2="801.8" y2="196.179" gradientUnits="userSpaceOnUse">
<stop stop-color="#F7A1CC"/>
<stop offset="0.6" stop-color="#86DEFF"/>
</linearGradient>
<linearGradient id="paint78_linear_103_288" x1="759.487" y1="251.449" x2="809.505" y2="251.449" gradientUnits="userSpaceOnUse">
<stop stop-color="#F7A1CC"/>
<stop offset="0.6" stop-color="#86DEFF"/>
</linearGradient>
<linearGradient id="paint79_linear_103_288" x1="801.8" y1="239.829" x2="767.193" y2="239.829" gradientUnits="userSpaceOnUse">
<stop stop-color="#F7A1CC"/>
<stop offset="0.6" stop-color="#86DEFF"/>
</linearGradient>
<linearGradient id="paint80_linear_103_288" x1="817.941" y1="243.005" x2="817.941" y2="192.987" gradientUnits="userSpaceOnUse">
<stop stop-color="#F7A1CC"/>
<stop offset="0.6" stop-color="#86DEFF"/>
</linearGradient>
<linearGradient id="paint81_linear_103_288" x1="806.321" y1="200.693" x2="806.321" y2="235.3" gradientUnits="userSpaceOnUse">
<stop stop-color="#F7A1CC"/>
<stop offset="0.6" stop-color="#86DEFF"/>
</linearGradient>
<linearGradient id="paint82_linear_103_288" x1="751.051" y1="192.987" x2="751.051" y2="243.005" gradientUnits="userSpaceOnUse">
<stop stop-color="#F7A1CC"/>
<stop offset="0.6" stop-color="#86DEFF"/>
</linearGradient>
<linearGradient id="paint83_linear_103_288" x1="762.671" y1="235.3" x2="762.671" y2="200.693" gradientUnits="userSpaceOnUse">
<stop stop-color="#F7A1CC"/>
<stop offset="0.6" stop-color="#86DEFF"/>
</linearGradient>
<linearGradient id="paint84_linear_103_288" x1="990.505" y1="253.559" x2="940.487" y2="253.559" gradientUnits="userSpaceOnUse">
<stop stop-color="#F9DEA7"/>
<stop offset="0.6" stop-color="#AAF2C7"/>
</linearGradient>
<linearGradient id="paint85_linear_103_288" x1="948.193" y1="265.179" x2="982.8" y2="265.179" gradientUnits="userSpaceOnUse">
<stop stop-color="#F9DEA7"/>
<stop offset="0.6" stop-color="#AAF2C7"/>
</linearGradient>
<linearGradient id="paint86_linear_103_288" x1="940.487" y1="320.449" x2="990.505" y2="320.449" gradientUnits="userSpaceOnUse">
<stop stop-color="#F9DEA7"/>
<stop offset="0.6" stop-color="#AAF2C7"/>
</linearGradient>
<linearGradient id="paint87_linear_103_288" x1="982.8" y1="308.829" x2="948.193" y2="308.829" gradientUnits="userSpaceOnUse">
<stop stop-color="#F9DEA7"/>
<stop offset="0.6" stop-color="#AAF2C7"/>
</linearGradient>
<linearGradient id="paint88_linear_103_288" x1="998.941" y1="312.005" x2="998.941" y2="261.987" gradientUnits="userSpaceOnUse">
<stop stop-color="#F9DEA7"/>
<stop offset="0.6" stop-color="#AAF2C7"/>
</linearGradient>
<linearGradient id="paint89_linear_103_288" x1="987.321" y1="269.693" x2="987.321" y2="304.3" gradientUnits="userSpaceOnUse">
<stop stop-color="#F9DEA7"/>
<stop offset="0.6" stop-color="#AAF2C7"/>
</linearGradient>
<linearGradient id="paint90_linear_103_288" x1="932.051" y1="261.987" x2="932.051" y2="312.005" gradientUnits="userSpaceOnUse">
<stop stop-color="#F9DEA7"/>
<stop offset="0.6" stop-color="#AAF2C7"/>
</linearGradient>
<linearGradient id="paint91_linear_103_288" x1="943.671" y1="304.3" x2="943.671" y2="269.693" gradientUnits="userSpaceOnUse">
<stop stop-color="#F9DEA7"/>
<stop offset="0.6" stop-color="#AAF2C7"/>
</linearGradient>
</defs>
</svg>
