<svg width="1200" height="751" viewBox="0 0 1200 751" fill="none" xmlns="http://www.w3.org/2000/svg">
<path d="M1141.69 375.712C1141.69 501.847 1092.62 620.299 1003.41 709.51L1044.8 750.905C1145.02 650.685 1200.18 517.441 1200.18 375.712C1200.18 233.982 1145.02 100.738 1044.8 0.518182L1003.41 41.9133C1092.62 131.125 1141.69 249.692 1141.69 375.712Z" fill="#F2FBFF"/>
<path d="M1001.91 375.712C1001.91 277.671 963.73 185.478 894.356 116.104L852.96 157.499C911.212 215.75 943.319 293.266 943.319 375.712C943.319 458.158 911.212 535.674 852.96 593.925L894.356 635.32C963.73 566.061 1001.91 473.868 1001.91 375.712Z" fill="#F2FBFF"/>
<path d="M58.6561 375.712C58.6561 249.577 107.734 131.125 196.946 41.9133L155.551 0.518187C55.3308 100.738 0.175441 233.982 0.175435 375.712C0.175429 517.441 55.3307 650.685 155.551 750.905L196.946 709.51C107.734 620.299 58.6561 501.847 58.6561 375.712Z" fill="#F2FBFF"/>
<path d="M305.88 116.104C236.506 185.478 198.321 277.556 198.321 375.712C198.321 473.868 236.506 565.946 305.88 635.32L347.275 593.925C289.024 535.674 256.917 458.158 256.917 375.712C256.917 293.266 289.024 215.75 347.275 157.499L305.88 116.104Z" fill="#F2FBFF"/>
</svg>
