<svg width="390" height="624" viewBox="0 0 390 624" fill="none" xmlns="http://www.w3.org/2000/svg">
<path d="M195 30.3942C260.556 30.3942 322.12 55.9015 368.486 102.268L390 80.7533C337.913 28.6659 268.661 -4.92916e-05 195 -5.25114e-05C121.339 -5.57313e-05 52.0874 28.6659 -3.52984e-06 80.7533L21.5144 102.268C67.8805 55.9015 129.503 30.3942 195 30.3942Z" fill="#F2FBFF"/>
<path d="M195 103.043C144.045 103.043 96.1294 122.888 60.0735 158.944L81.5879 180.459C111.863 150.184 152.15 133.497 195 133.497C237.85 133.497 278.137 150.184 308.412 180.459L329.927 158.944C293.931 122.888 246.015 103.043 195 103.043Z" fill="#F2FBFF"/>
<path d="M195 593.284C129.444 593.284 67.8805 567.777 21.5144 521.41L-9.40423e-07 542.925C52.0874 595.012 121.339 623.678 195 623.678C268.661 623.678 337.913 595.012 390 542.925L368.486 521.41C322.12 567.777 260.556 593.284 195 593.284Z" fill="#F2FBFF"/>
<path d="M60.0735 464.794C96.1294 500.85 143.986 520.695 195 520.695C246.015 520.695 293.871 500.85 329.927 464.794L308.412 443.279C278.137 473.554 237.85 490.241 195 490.241C152.15 490.241 111.863 473.554 81.5879 443.279L60.0735 464.794Z" fill="#F2FBFF"/>
</svg>
