<svg width="26" height="40" viewBox="0 0 26 40" fill="none" xmlns="http://www.w3.org/2000/svg">
<path d="M13 1.94936C17.2023 1.94936 21.1487 3.58529 24.1209 6.55901L25.5 5.17917C22.1611 1.83851 17.7219 0 13 0C8.27812 0 3.83894 1.83851 0.5 5.17917L1.87913 6.55901C4.85132 3.58529 8.8015 1.94936 13 1.94936Z" fill="url(#paint0_linear_172_2615)"/>
<path d="M13 6.60889C9.73363 6.60889 6.66211 7.8817 4.35083 10.1942L5.72996 11.574C7.67067 9.63229 10.2532 8.56206 13 8.56206C15.7468 8.56206 18.3293 9.63229 20.27 11.574L21.6491 10.1942C19.3417 7.8817 16.2702 6.60889 13 6.60889Z" fill="url(#paint1_linear_172_2615)"/>
<path d="M13 38.0506C8.79768 38.0506 4.85132 36.4146 1.87913 33.4409L0.5 34.8208C3.83894 38.1614 8.27812 39.9999 13 39.9999C17.7219 39.9999 22.1611 38.1614 25.5 34.8208L24.1209 33.4409C21.1487 36.4146 17.2023 38.0506 13 38.0506Z" fill="url(#paint2_linear_172_2615)"/>
<path d="M4.35083 29.81C6.66211 32.1225 9.72981 33.3953 13 33.3953C16.2702 33.3953 19.3378 32.1225 21.6491 29.81L20.27 28.4302C18.3293 30.3719 15.7468 31.4421 13 31.4421C10.2532 31.4421 7.67067 30.3719 5.72996 28.4302L4.35083 29.81Z" fill="url(#paint3_linear_172_2615)"/>
<path d="M19.4258 20.0017C19.4258 16.4508 16.5491 13.5688 12.9962 13.5688C9.44333 13.5688 6.56665 16.447 6.56665 20.0017C6.56665 23.5564 9.44333 26.4346 12.9962 26.4346C16.5491 26.4346 19.4258 23.5526 19.4258 20.0017ZM8.49208 19.8947C8.49208 17.4026 10.5092 15.3844 13 15.3844C15.4909 15.3844 17.508 17.4026 17.508 19.8947C17.508 22.3868 15.4909 24.405 13 24.405C10.5092 24.405 8.49208 22.3868 8.49208 19.8947Z" fill="black"/>
<defs>
<linearGradient id="paint0_linear_172_2615" x1="25.4962" y1="3.2795" x2="0.5" y2="3.2795" gradientUnits="userSpaceOnUse">
<stop stop-color="#AAF2C7"/>
<stop offset="0.6" stop-color="#9ADBEF"/>
</linearGradient>
<linearGradient id="paint1_linear_172_2615" x1="4.35083" y1="9.08953" x2="21.6453" y2="9.08953" gradientUnits="userSpaceOnUse">
<stop stop-color="#AAF2C7"/>
<stop offset="0.6" stop-color="#9ADBEF"/>
</linearGradient>
<linearGradient id="paint2_linear_172_2615" x1="0.5" y1="36.7242" x2="25.4962" y2="36.7242" gradientUnits="userSpaceOnUse">
<stop stop-color="#AAF2C7"/>
<stop offset="0.6" stop-color="#9ADBEF"/>
</linearGradient>
<linearGradient id="paint3_linear_172_2615" x1="21.6453" y1="30.9146" x2="4.35083" y2="30.9146" gradientUnits="userSpaceOnUse">
<stop stop-color="#AAF2C7"/>
<stop offset="0.6" stop-color="#9ADBEF"/>
</linearGradient>
</defs>
</svg>
