<svg width="174" height="53" viewBox="0 0 174 53" fill="none" xmlns="http://www.w3.org/2000/svg">
<g clip-path="url(#clip0_97_220)">
<path d="M2.73625 24.4187H13.6052V21.8816H2.73625V14.3312H13.8028V11.7992H0V34.567H13.9954V32.0299H2.73625V24.4187Z" fill="#010112"/>
<path d="M31.4922 30.3537C31.0919 31.0171 30.5243 31.559 29.7997 31.9793C29.0701 32.3996 28.1783 32.6123 27.1142 32.6123C26.0501 32.6123 25.0873 32.3793 24.2158 31.9134C23.3493 31.4475 22.6602 30.774 22.1484 29.898C21.6417 29.0219 21.3832 27.9736 21.3832 26.7583V26.3683C21.3832 25.1986 21.6366 24.1604 22.1484 23.2641C22.6602 22.3627 23.3442 21.6588 24.2006 21.1473C25.0569 20.6359 26.0095 20.3827 27.0483 20.3827C28.0871 20.3827 29.0042 20.5903 29.7339 21.0005C30.4585 21.4107 31.0311 21.9475 31.4415 22.6108C31.8519 23.2742 32.1002 23.9832 32.1914 24.7428L34.7301 24.1554C34.5375 22.9653 34.0967 21.9019 33.4126 20.9701C32.7285 20.0383 31.8519 19.304 30.7777 18.7723C29.7035 18.2406 28.4823 17.9773 27.1142 17.9773C25.6194 17.9773 24.2411 18.3115 22.9845 18.985C21.7227 19.6585 20.7093 20.6207 19.9391 21.8816C19.1689 23.1426 18.7838 24.6364 18.7838 26.3734V26.7633C18.7838 28.5205 19.1689 30.0144 19.9391 31.2501C20.7093 32.4857 21.7227 33.4225 22.9845 34.0656C24.2411 34.7037 25.6194 35.0227 27.1142 35.0227C28.5279 35.0227 29.7693 34.7543 30.8385 34.2277C31.9127 33.696 32.7843 32.9617 33.4582 32.0299C34.1321 31.0981 34.573 30.0347 34.7909 28.8396L32.2522 28.2522C32.1458 28.9915 31.8874 29.6903 31.4871 30.3487L31.4922 30.3537Z" fill="#010112"/>
<path d="M51.3299 25.4568V34.567H53.8686V24.9403C53.8686 22.621 53.3213 20.8789 52.2268 19.7193C51.1323 18.5596 49.7034 17.9773 47.9451 17.9773C46.6428 17.9773 45.5433 18.2811 44.6413 18.8888C43.7394 19.4965 43.0401 20.3219 42.5435 21.36H42.1534V11.7992H39.6147V34.567H42.1534V26.1759C42.1534 24.4187 42.5993 23.016 43.486 21.9626C44.3778 20.9093 45.5788 20.3827 47.0989 20.3827C48.4011 20.3827 49.4298 20.803 50.1898 21.6487C50.9499 22.4944 51.3299 23.7654 51.3299 25.4518V25.4568Z" fill="#010112"/>
<path d="M89.2675 21.7499C87.2254 21.4461 85.7002 21.0055 84.6767 20.4333C83.6582 19.8611 83.1464 18.9445 83.1464 17.6835V17.486C83.1464 16.7062 83.3693 16.0479 83.8153 15.5212C84.2612 14.9895 84.8439 14.5844 85.5735 14.3008C86.2981 14.0172 87.0785 13.8754 87.8994 13.8754C88.852 13.8754 89.7438 14.0425 90.5697 14.3818C91.3957 14.7211 92.0544 15.2174 92.556 15.8807C93.0577 16.5441 93.306 17.3696 93.306 18.3672V19.537H96.0372V18.1697C96.0372 16.9341 95.7179 15.7997 95.0795 14.7717C94.441 13.7437 93.5188 12.9132 92.3128 12.2853C91.1068 11.6574 89.6475 11.3434 87.9348 11.3434C86.4603 11.3434 85.158 11.6016 84.0281 12.1232C82.8981 12.6448 82.0164 13.3538 81.3729 14.2552C80.7344 15.1566 80.4152 16.1998 80.4152 17.3949V17.7848C80.4152 19.7345 81.0942 21.1929 82.4471 22.1601C83.8051 23.1273 85.6191 23.7705 87.8994 24.0946C89.8755 24.3782 91.2994 24.8339 92.1811 25.4619C93.0627 26.0898 93.4985 27.0013 93.4985 28.1964V28.3889C93.4985 29.6042 93.0678 30.5917 92.2115 31.3513C91.3551 32.1109 90.0782 32.4907 88.3858 32.4907C86.4552 32.4907 84.9351 31.9843 83.8305 30.9766C82.7208 29.9688 82.1735 28.48 82.1735 26.505V25.7252H79.4373V26.7025C79.4373 28.2876 79.7767 29.7055 80.4608 30.9664C81.1449 32.2223 82.1482 33.2149 83.4707 33.9441C84.7932 34.6682 86.4299 35.0329 88.3858 35.0329C90.9447 35.0329 92.8905 34.4201 94.2282 33.1946C95.5608 31.9691 96.2297 30.3689 96.2297 28.399V28.0091C96.2297 26.2772 95.6673 24.8846 94.5373 23.8464C93.4073 22.8033 91.649 22.1095 89.2624 21.7651L89.2675 21.7499Z" fill="#010112"/>
<path d="M112.247 26.8241C112.247 28.5813 111.806 29.984 110.93 31.0374C110.048 32.0907 108.842 32.6173 107.301 32.6173C105.867 32.6173 104.803 32.2274 104.109 31.4475C103.415 30.6677 103.065 29.4321 103.065 27.7407V18.4381H100.527V28.0648C100.527 30.3638 101.089 32.0957 102.219 33.2706C103.349 34.4404 104.798 35.0278 106.582 35.0278C107.884 35.0278 108.958 34.724 109.805 34.1163C110.651 33.5086 111.335 32.6832 111.857 31.645H112.247V34.572H114.786V18.4381H112.247V26.8292V26.8241Z" fill="#010112"/>
<path d="M130.347 17.9773C129.389 17.9773 128.528 18.19 127.757 18.6103C126.987 19.0356 126.394 19.6889 125.984 20.5802H125.594V18.433H119.736V20.7777H123.055V32.2274H119.346V34.572H129.698V32.2274H125.599V25.396C125.599 23.9883 125.918 22.7982 126.556 21.836C127.195 20.8688 128.178 20.3877 129.5 20.3877C130.539 20.3877 131.421 20.7169 132.135 21.3803C132.85 22.0437 133.21 23.1223 133.21 24.6162L135.88 24.2263C135.814 22.1855 135.277 20.6359 134.269 19.5724C133.26 18.509 131.953 17.9773 130.347 17.9773Z" fill="#010112"/>
<path d="M151.477 20.9701H151.086C150.61 19.9927 149.926 19.2534 149.034 18.7419C148.142 18.2305 147.114 17.9773 145.943 17.9773C144.555 17.9773 143.263 18.3014 142.072 18.9546C140.881 19.6079 139.913 20.5447 139.174 21.7702C138.434 22.9957 138.064 24.4845 138.064 26.2417V26.7633C138.064 28.5205 138.429 30.0144 139.153 31.2501C139.878 32.4857 140.846 33.4225 142.052 34.0656C143.258 34.7037 144.575 35.0227 146.004 35.0227C147.068 35.0227 148.051 34.7797 148.948 34.2885C149.85 33.8023 150.559 33.068 151.081 32.0907H151.472V37.7523C151.472 38.4055 151.178 38.7296 150.59 38.7296H140.988V41.0742H151.502C152.237 41.0742 152.845 40.8362 153.306 40.3602C153.772 39.8842 154.005 39.2765 154.005 38.5372V18.433H151.467V20.9701H151.477ZM151.477 26.6924C151.477 27.8875 151.238 28.9257 150.757 29.8169C150.281 30.7082 149.632 31.3969 148.821 31.8831C148.011 32.3692 147.094 32.6173 146.07 32.6173C145.046 32.6173 144.099 32.3793 143.288 31.9033C142.477 31.4273 141.834 30.7487 141.368 29.8726C140.902 28.9915 140.668 27.9584 140.668 26.7684V26.2468C140.668 25.077 140.907 24.049 141.383 23.1729C141.859 22.2918 142.508 21.6132 143.319 21.122C144.134 20.6359 145.052 20.3877 146.07 20.3877C147.089 20.3877 147.975 20.6409 148.786 21.1524C149.597 21.6639 150.25 22.3627 150.737 23.2489C151.223 24.1402 151.472 25.158 151.472 26.3076V26.6975L151.477 26.6924Z" fill="#010112"/>
<path d="M174 25.1986C174 24.4845 173.853 23.7097 173.559 22.8742C173.265 22.0386 172.809 21.2537 172.191 20.5143C171.573 19.775 170.777 19.1673 169.815 18.6913C168.847 18.2153 167.702 17.9773 166.379 17.9773C164.879 17.9773 163.531 18.3216 162.325 19.0154C161.119 19.7092 160.172 20.6561 159.478 21.8462C158.783 23.0362 158.434 24.3934 158.434 25.9126V26.6924C158.434 28.3433 158.768 29.7866 159.442 31.0374C160.116 32.2831 161.043 33.2605 162.224 33.9644C163.405 34.6683 164.768 35.0227 166.308 35.0227C168.391 35.0227 170.048 34.5518 171.274 33.6099C172.5 32.668 173.341 31.4475 173.797 29.9486L171.39 29.2953C171.107 30.2069 170.59 30.9867 169.83 31.64C169.07 32.2882 167.919 32.6173 166.379 32.6173C164.732 32.6173 163.435 32.1261 162.488 31.1386C161.545 30.1512 161.038 28.8649 160.978 27.2849H173.995V25.2036L174 25.1986ZM161.048 24.9352C161.221 23.6338 161.798 22.5501 162.776 21.6841C163.754 20.8182 164.955 20.3827 166.389 20.3827C167.235 20.3827 168.036 20.565 168.796 20.9347C169.556 21.3043 170.179 21.831 170.666 22.5146C171.152 23.1983 171.421 24.0085 171.461 24.9403H161.043L161.048 24.9352Z" fill="#010112"/>
<path d="M66.6125 2.58265C72.1863 2.58265 77.4206 4.75005 81.3629 8.68985L83.1921 6.86174C78.7634 2.43579 72.8754 0 66.6125 0C60.3495 0 54.4615 2.43579 50.0328 6.86174L51.8621 8.68985C55.8043 4.75005 61.0437 2.58265 66.6125 2.58265Z" fill="url(#paint0_linear_97_220)"/>
<path d="M66.6125 8.75568C62.2801 8.75568 58.2061 10.442 55.1405 13.5057L56.9697 15.3338C59.5438 12.7613 62.9692 11.3434 66.6125 11.3434C70.2557 11.3434 73.6811 12.7613 76.2552 15.3338L78.0844 13.5057C75.0239 10.442 70.9499 8.75568 66.6125 8.75568Z" fill="url(#paint1_linear_97_220)"/>
<path d="M66.6125 50.4123C61.0386 50.4123 55.8043 48.2449 51.8621 44.3051L50.0328 46.1332C54.4615 50.5591 60.3495 52.9949 66.6125 52.9949C72.8754 52.9949 78.7634 50.5591 83.1921 46.1332L81.3629 44.3051C77.4206 48.2449 72.1863 50.4123 66.6125 50.4123Z" fill="url(#paint2_linear_97_220)"/>
<path d="M55.1405 39.4942C58.2061 42.558 62.275 44.2443 66.6125 44.2443C70.9499 44.2443 75.0188 42.558 78.0844 39.4942L76.2552 37.6661C73.6811 40.2387 70.2557 41.6566 66.6125 41.6566C62.9692 41.6566 59.5438 40.2387 56.9697 37.6661L55.1405 39.4942Z" fill="url(#paint3_linear_97_220)"/>
<path d="M75.1353 26.5C75.1353 21.7955 71.3197 17.9773 66.6073 17.9773C61.8949 17.9773 58.0793 21.7905 58.0793 26.5C58.0793 31.2095 61.8949 35.0227 66.6073 35.0227C71.3197 35.0227 75.1353 31.2045 75.1353 26.5ZM60.6332 26.3582C60.6332 23.0565 63.3086 20.3827 66.6124 20.3827C69.9162 20.3827 72.5916 23.0565 72.5916 26.3582C72.5916 29.66 69.9162 32.3338 66.6124 32.3338C63.3086 32.3338 60.6332 29.66 60.6332 26.3582Z" fill="#010112"/>
</g>
<defs>
<linearGradient id="paint0_linear_97_220" x1="83.187" y1="4.34493" x2="50.0328" y2="4.34493" gradientUnits="userSpaceOnUse">
<stop stop-color="#AAF2C7"/>
<stop offset="0.6" stop-color="#9ADBEF"/>
</linearGradient>
<linearGradient id="paint1_linear_97_220" x1="55.1405" y1="12.0422" x2="78.0794" y2="12.0422" gradientUnits="userSpaceOnUse">
<stop stop-color="#AAF2C7"/>
<stop offset="0.6" stop-color="#9ADBEF"/>
</linearGradient>
<linearGradient id="paint2_linear_97_220" x1="50.0328" y1="48.6551" x2="83.187" y2="48.6551" gradientUnits="userSpaceOnUse">
<stop stop-color="#AAF2C7"/>
<stop offset="0.6" stop-color="#9ADBEF"/>
</linearGradient>
<linearGradient id="paint3_linear_97_220" x1="78.0794" y1="40.9577" x2="55.1405" y2="40.9577" gradientUnits="userSpaceOnUse">
<stop stop-color="#AAF2C7"/>
<stop offset="0.6" stop-color="#9ADBEF"/>
</linearGradient>
<clipPath id="clip0_97_220">
<rect width="174" height="53" fill="white"/>
</clipPath>
</defs>
</svg>
