<svg width="30" height="35" viewBox="0 0 30 35" fill="none" xmlns="http://www.w3.org/2000/svg">
<path fill-rule="evenodd" clip-rule="evenodd" d="M4.08177 0L14.0063 9.18252V9.18041V0.0211882H15.9382V9.22361L25.9071 0V10.4694H30V25.5706H25.9197V34.8931L15.9382 26.0866V34.9942H14.0063V26.2318L4.09301 35V25.5706H0V10.4694H4.08177V0ZM12.5498 12.3858H1.9319V23.6542H4.09059V20.0997L12.5498 12.3858ZM6.02482 20.95V30.7238L14.0063 23.6643V13.67L6.02482 20.95ZM15.9937 23.5709V13.6606L23.9775 20.9411V25.5706H23.9878V30.624L15.9937 23.5709ZM25.9197 23.6542H28.0681V12.3858H17.5293L25.9197 20.0199V23.6542ZM23.9752 10.4694V4.40804L17.4239 10.4694H23.9752ZM12.5648 10.4694H6.01368V4.40804L12.5648 10.4694Z" fill="black"/>
</svg>
